<!-- Generator: Adobe Illustrator 23.0.3, SVG Export Plug-In . SVG Version: 6.00 Build 0)  -->
<svg version="1.1" id="Layer_1" xmlns="http://www.w3.org/2000/svg" xmlns:xlink="http://www.w3.org/1999/xlink" x="0px" y="0px"
	 viewBox="0 0 512 512" style="enable-background:new 0 0 512 512;" xml:space="preserve">
<style type="text/css">
	.st0{fill:#D9E4E8;}
	.st1{fill:#FFB621;}
	.st2{fill:#FFA322;}
	.st3{fill:#141C28;}
	.st4{fill:#141F38;}
</style>
<title>document-upload-filled</title>
<path class="st0" d="M76.8,499.2c-28.3,0-51.2-22.9-51.2-51.2V64c0-28.3,22.9-51.2,51.2-51.2h186.8l146,146.1V448
	c0,28.3-22.9,51.2-51.2,51.2H76.8z"/>
<path class="st1" d="M320,153.6c-28.3,0-51.2-22.9-51.2-51.2V18.1l135.1,135.5H320z"/>
<path class="st2" d="M409.6,499.2c-42.4,0-76.8-34.4-76.8-76.8s34.4-76.8,76.8-76.8s76.8,34.4,76.8,76.8
	C486.4,464.8,452,499.2,409.6,499.2z"/>
<path class="st3" d="M128,268.8h76.8c7.1,0,12.8-5.7,12.8-12.8c0-7.1-5.7-12.8-12.8-12.8H128c-7.1,0-12.8,5.7-12.8,12.8
	C115.2,263.1,120.9,268.8,128,268.8L128,268.8z"/>
<path class="st3" d="M281.6,294.4H128c-7.1,0-12.8,5.7-12.8,12.8c0,7.1,5.7,12.8,12.8,12.8l0,0h153.6c7.1,0,12.8-5.7,12.8-12.8
	C294.4,300.1,288.7,294.4,281.6,294.4z"/>
<path class="st3" d="M281.2,345.6H128c-7.1,0-12.8,5.7-12.8,12.8c0,7.1,5.7,12.8,12.8,12.8l0,0h153.2c7.1,0,12.8-5.7,12.8-12.8
	C294,351.3,288.3,345.6,281.2,345.6z"/>
<path class="st3" d="M422.4,333.8V153.6L268.9,0H76.8c-35.3,0-64,28.7-64,64v384c0,35.3,28.7,64,64,64h281.6c8,0,15.9-1.5,23.3-4.5
	c47,15.4,97.6-10.2,113-57.2c15.4-47-10.2-97.6-57.2-113C432.6,335.7,427.5,334.6,422.4,333.8z M373.1,140.8H320
	c-21.2,0-38.4-17.2-38.4-38.4V49.1L373.1,140.8z M76.8,486.4c-21.2,0-38.4-17.2-38.4-38.4V64c0-21.2,17.2-38.4,38.4-38.4H256v76.8
	c0,35.3,28.7,64,64,64h76.8v167.4c-48.9,7-82.9,52.4-75.8,101.3c2.8,19.5,12,37.5,26,51.3H76.8z M409.6,486.4c-35.3,0-64-28.7-64-64
	s28.7-64,64-64s64,28.7,64,64C473.6,457.7,444.9,486.4,409.6,486.4L409.6,486.4z"/>
<path class="st4" d="M418.6,387.8c-0.2-0.2-0.4-0.3-0.6-0.5s-0.5-0.4-0.7-0.6c-0.8-0.7-1.8-1.2-2.8-1.7l-0.1-0.1l0,0
	c-1-0.4-2.1-0.7-3.3-0.8l-0.8-0.1c-1.1-0.1-2.2,0-3.3,0.2l-0.2,0.1c-1,0.2-2,0.5-2.9,1c-0.3,0.1-0.5,0.3-0.8,0.4
	c-1,0.5-1.9,1.2-2.7,2L375,413.3c-4.9,5.1-4.8,13.2,0.3,18.1c5,4.8,12.9,4.8,17.8,0l3.8-3.8V448c0,7.1,5.7,12.8,12.8,12.8
	c7.1,0,12.8-5.7,12.8-12.8v-20.3l3.8,3.8c5.1,4.9,13.2,4.8,18.1-0.3c4.8-5,4.8-12.9,0-17.8L418.6,387.8z"/>
</svg>
